<svg data-v-423bf9ae="" xmlns="http://www.w3.org/2000/svg" viewBox="0 0 745 91" class="iconLeft"><!----><!----><!----><g data-v-423bf9ae="" id="a7d62ad9-2a8c-4d3d-b46f-3bc8f5a8709d" fill="black" transform="matrix(5.819592391658763,0,0,5.819592391658763,186.08031741769645,-38.48205116050873)"><path d="M10.06 18.71L10.06 18.71L10.06 18.71Q10.06 19.02 9.67 19.17L9.67 19.17L9.67 19.17Q9.28 19.32 8.82 19.32L8.82 19.32L8.74 19.32L8.74 19.32Q7.85 19.32 7.61 19.25L7.61 19.25L7.61 19.25Q7.38 19.18 7.23 19.11L7.23 19.11L7.23 19.11Q6.92 18.96 6.92 18.63L6.92 18.63L6.92 18.63Q6.92 18.48 7.29 18.46L7.29 18.46L7.29 18.46Q7.66 18.44 7.66 18.22L7.66 18.22L7.66 18.22Q7.66 18.15 7.53 17.90L7.53 17.90L7.53 17.90L6.78 16.11L2.75 16.11L2.75 16.11Q2.02 18.03 2.02 18.20L2.02 18.20L2.02 18.20Q2.02 18.38 2.11 18.40L2.11 18.40L2.11 18.40L2.11 18.40Q2.15 18.42 2.34 18.47L2.34 18.47L2.34 18.47Q2.80 18.58 2.80 18.71L2.80 18.71L2.80 18.71Q2.80 19.32 1.26 19.32L1.26 19.32L1.26 19.32Q-0.02 19.32-0.02 18.71L-0.02 18.71L-0.02 18.71Q-0.02 18.58 0.44 18.45L0.44 18.45L0.44 18.45Q0.90 18.32 1.09 17.81L1.09 17.81L3.86 10.57L3.86 10.57Q3.79 10.38 3.79 10.25L3.79 10.25L3.79 10.25Q3.79 9.72 4.87 9.72L4.87 9.72L4.87 9.72Q5.73 9.72 5.98 10.38L5.98 10.38L8.87 17.76L8.87 17.76Q9.11 18.35 9.62 18.43L9.62 18.43L9.62 18.43Q9.94 18.48 10.00 18.54L10.00 18.54L10.00 18.54Q10.06 18.59 10.06 18.71ZM4.73 10.57L3.02 15.45L6.51 15.45L4.73 10.57ZM15.74 14.18L15.74 14.18Q15.45 13.81 14.91 13.59L14.91 13.59L14.91 13.59Q14.38 13.36 13.71 13.36L13.71 13.36L13.71 13.36Q13.05 13.36 12.58 13.75L12.58 13.75L12.58 13.75Q11.68 14.49 11.68 15.95L11.68 15.95L11.68 15.95Q11.68 17.08 12.29 17.86L12.29 17.86L12.29 17.86Q12.91 18.64 13.89 18.64L13.89 18.64L13.89 18.64Q14.87 18.64 15.30 18.23L15.30 18.23L15.30 18.23Q15.74 17.83 15.74 16.88L15.74 16.88L15.74 14.18ZM13.85 12.63L13.85 12.63L13.85 12.63Q14.30 12.63 14.86 12.77L14.86 12.77L14.86 12.77Q15.42 12.92 15.74 13.08L15.74 13.08L15.74 10.79L15.74 10.79Q15.74 10.17 15.24 10.12L15.24 10.12L15.24 10.12Q15.20 10.12 15.12 10.11L15.12 10.11L15.12 10.11Q15.05 10.10 15.01 10.10L15.01 10.10L15.01 10.10Q14.98 10.10 14.93 10.09L14.93 10.09L14.93 10.09Q14.88 10.08 14.85 10.06L14.85 10.06L14.85 10.06Q14.83 10.05 14.81 10.03L14.81 10.03L14.81 10.03Q14.76 9.99 14.76 9.83L14.76 9.83L14.76 9.83Q14.76 9.67 14.97 9.50L14.97 9.50L14.97 9.50Q15.35 9.19 16.00 9.19L16.00 9.19L16.00 9.19Q16.69 9.19 16.81 9.27L16.81 9.27L16.81 9.27Q17.04 9.43 17.04 9.70L17.04 9.70L17.04 17.18L17.04 17.18Q17.04 17.94 17.21 18.16L17.21 18.16L17.21 18.16Q17.38 18.38 17.51 18.43L17.51 18.43L17.51 18.43Q17.64 18.48 17.74 18.51L17.74 18.51L17.74 18.51Q17.84 18.55 17.88 18.56L17.88 18.56L17.88 18.56Q17.92 18.58 17.99 18.62L17.99 18.62L17.99 18.62Q18.09 18.68 18.09 18.81L18.09 18.81L18.09 18.81Q18.09 19.10 17.79 19.23L17.79 19.23L17.79 19.23Q17.49 19.37 16.98 19.37L16.98 19.37L16.98 19.37Q16.48 19.37 16.26 19.17L16.26 19.17L16.26 19.17Q16.03 18.98 15.86 18.47L15.86 18.47L15.86 18.47Q15.30 19.46 13.52 19.46L13.52 19.46L13.52 19.46Q12.10 19.46 11.21 18.52L11.21 18.52L11.21 18.52Q10.32 17.58 10.32 16.07L10.32 16.07L10.32 16.07Q10.32 14.57 11.31 13.60L11.31 13.60L11.31 13.60Q12.30 12.63 13.85 12.63ZM20.11 14.98L20.11 14.98L20.11 14.98Q19.86 14.98 19.54 14.78L19.54 14.78L19.54 14.78Q19.22 14.58 19.22 14.26L19.22 14.26L19.22 14.26Q19.22 13.93 19.41 13.64L19.41 13.64L19.41 13.64Q19.59 13.36 19.89 13.18L19.89 13.18L19.89 13.18Q20.18 13.00 20.57 12.87L20.57 12.87L20.57 12.87Q21.28 12.65 22.10 12.65L22.10 12.65L22.10 12.65Q23.48 12.65 24.11 13.26L24.11 13.26L24.11 13.26Q24.73 13.87 24.73 15.28L24.73 15.28L24.73 17.29L24.73 17.29Q24.73 18.03 24.91 18.21L24.91 18.21L24.91 18.21Q24.96 18.26 25.21 18.33L25.21 18.33L25.21 18.33Q25.91 18.55 25.91 18.67L25.91 18.67L25.91 18.67Q25.91 19.39 24.44 19.39L24.44 19.39L24.44 19.39Q23.88 19.39 23.72 19.14L23.72 19.14L23.72 19.14Q23.55 18.89 23.54 18.25L23.54 18.25L23.54 18.25Q23.23 18.80 22.60 19.14L22.60 19.14L22.60 19.14Q21.97 19.48 21.25 19.48L21.25 19.48L21.25 19.48Q20.54 19.48 20.04 19.30L20.04 19.30L20.04 19.30Q19.54 19.11 19.23 18.70L19.23 18.70L19.23 18.70Q18.92 18.29 18.92 17.81L18.92 17.81L18.92 17.81Q18.92 17.33 19.02 17.04L19.02 17.04L19.02 17.04Q19.13 16.75 19.30 16.55L19.30 16.55L19.30 16.55Q19.46 16.35 19.75 16.19L19.75 16.19L19.75 16.19Q20.03 16.04 20.28 15.94L20.28 15.94L20.28 15.94Q20.52 15.85 20.91 15.78L20.91 15.78L20.91 15.78Q21.49 15.67 21.88 15.62L21.88 15.62L21.88 15.62Q22.26 15.58 22.28 15.57L22.28 15.57L22.28 15.57Q22.32 15.57 22.75 15.52L22.75 15.52L22.75 15.52Q23.17 15.48 23.42 15.34L23.42 15.34L23.42 15.34Q23.42 14.04 23.07 13.64L23.07 13.64L23.07 13.64Q22.76 13.30 22.06 13.30L22.06 13.30L22.06 13.30Q21.36 13.30 21.00 13.66L21.00 13.66L21.00 13.66Q20.65 14.02 20.65 14.80L20.65 14.80L20.66 14.95L20.66 14.95Q20.37 14.98 20.11 14.98ZM23.42 15.96L23.42 15.96L23.42 15.96Q22.96 16.13 22.37 16.19L22.37 16.19L22.37 16.19Q21.79 16.26 21.45 16.34L21.45 16.34L21.45 16.34Q21.12 16.43 20.89 16.56L20.89 16.56L20.89 16.56Q20.37 16.86 20.37 17.60L20.37 17.60L20.37 17.60Q20.37 18.77 21.74 18.77L21.74 18.77L21.74 18.77Q22.92 18.77 23.24 17.64L23.24 17.64L23.24 17.64Q23.42 17.00 23.42 15.96ZM28.59 19.32L28.59 19.32L28 19.33L28 19.33Q27.10 19.33 26.89 19.05L26.89 19.05L26.89 19.05Q26.80 18.93 26.80 18.75L26.80 18.75L26.80 18.75Q26.80 18.58 26.93 18.51L26.93 18.51L26.93 18.51Q27.07 18.44 27.24 18.44L27.24 18.44L27.24 18.44Q27.41 18.43 27.54 18.33L27.54 18.33L27.54 18.33Q27.68 18.23 27.68 18.01L27.68 18.01L27.68 14.11L27.68 14.11Q27.68 13.90 27.52 13.80L27.52 13.80L27.52 13.80Q27.37 13.70 27.19 13.69L27.19 13.69L27.19 13.69Q26.70 13.66 26.70 13.38L26.70 13.38L26.70 13.38Q26.70 12.93 27.60 12.77L27.60 12.77L27.60 12.77Q27.81 12.73 27.99 12.73L27.99 12.73L27.99 12.73Q28.57 12.73 28.75 12.90L28.75 12.90L28.75 12.90Q28.92 13.08 28.92 13.68L28.92 13.68L28.92 13.68Q29.86 12.63 31.47 12.63L31.47 12.63L31.47 12.63Q32.03 12.63 32.56 12.96L32.56 12.96L32.56 12.96Q33.09 13.30 33.39 13.75L33.39 13.75L33.39 13.75Q34.55 12.62 35.97 12.62L35.97 12.62L35.97 12.62Q37.62 12.62 38.07 14.03L38.07 14.03L38.07 14.03Q38.32 14.79 38.32 16.10L38.32 16.10L38.32 18.01L38.32 18.01Q38.32 18.41 38.76 18.43L38.76 18.43L38.76 18.43Q39.20 18.46 39.20 18.79L39.20 18.79L39.20 18.79Q39.20 19.16 38.79 19.25L38.79 19.25L38.79 19.25Q38.47 19.32 37.93 19.32L37.93 19.32L37.34 19.33L37.34 19.33Q36.44 19.33 36.23 19.05L36.23 19.05L36.23 19.05Q36.13 18.93 36.13 18.75L36.13 18.75L36.13 18.75Q36.13 18.58 36.27 18.51L36.27 18.51L36.27 18.51Q36.41 18.44 36.58 18.44L36.58 18.44L36.58 18.44Q36.74 18.43 36.88 18.33L36.88 18.33L36.88 18.33Q37.02 18.23 37.02 18.01L37.02 18.01L37.02 15.91L37.02 15.91Q37.02 14.35 36.67 13.92L36.67 13.92L36.67 13.92Q36.34 13.50 35.73 13.50L35.73 13.50L35.73 13.50Q35.12 13.50 34.68 13.66L34.68 13.66L34.68 13.66Q34.23 13.82 33.94 14.16L33.94 14.16L33.94 14.16Q33.65 14.50 33.65 14.96L33.65 14.96L33.65 18.01L33.65 18.01Q33.65 18.41 34.09 18.43L34.09 18.43L34.09 18.43Q34.54 18.46 34.54 18.79L34.54 18.79L34.54 18.79Q34.54 19.16 34.13 19.25L34.13 19.25L34.13 19.25Q33.81 19.32 33.26 19.32L33.26 19.32L32.68 19.33L32.68 19.33Q31.78 19.33 31.57 19.05L31.57 19.05L31.57 19.05Q31.47 18.93 31.47 18.75L31.47 18.75L31.47 18.75Q31.47 18.58 31.61 18.51L31.61 18.51L31.61 18.51Q31.75 18.44 31.91 18.44L31.91 18.44L31.91 18.44Q32.08 18.43 32.22 18.33L32.22 18.33L32.22 18.33Q32.35 18.23 32.35 18.01L32.35 18.01L32.35 15.98L32.35 15.98Q32.35 14.69 32.13 14.21L32.13 14.21L32.13 14.21Q31.80 13.50 31.01 13.50L31.01 13.50L31.01 13.50Q30.02 13.50 29.50 14L29.50 14L29.50 14Q28.98 14.50 28.98 15.42L28.98 15.42L28.98 18.01L28.98 18.01Q28.98 18.41 29.42 18.43L29.42 18.43L29.42 18.43Q29.86 18.46 29.86 18.79L29.86 18.79L29.86 18.79Q29.86 19.16 29.45 19.25L29.45 19.25L29.45 19.25Q29.13 19.32 28.59 19.32ZM44.51 16.54L44.51 16.54L44.51 16.54Q45.08 17.49 46.06 18.03L46.06 18.03L46.06 18.03Q47.04 18.57 48.19 18.57L48.19 18.57L48.19 18.57Q49.34 18.57 50.29 18.08L50.29 18.08L50.29 18.08Q51.24 17.59 51.80 16.70L51.80 16.70L51.80 16.70Q52.37 15.82 52.37 14.63L52.37 14.63L52.37 14.63Q52.37 13.45 51.81 12.48L51.81 12.48L51.81 12.48Q51.25 11.50 50.25 10.99L50.25 10.99L50.25 10.99Q49.26 10.48 48.04 10.48L48.04 10.48L48.04 10.48Q46.82 10.48 45.90 10.98L45.90 10.98L45.90 10.98Q44.97 11.47 44.45 12.38L44.45 12.38L44.45 12.38Q43.93 13.28 43.93 14.44L43.93 14.44L43.93 14.44Q43.93 15.59 44.51 16.54ZM42.44 14.89L42.44 14.89L42.44 14.89Q42.44 13.97 42.72 13.12L42.72 13.12L42.72 13.12Q43.01 12.26 43.53 11.63L43.53 11.63L43.53 11.63Q44.06 10.99 44.77 10.54L44.77 10.54L44.77 10.54Q46.20 9.64 48.19 9.64L48.19 9.64L48.19 9.64Q50.04 9.64 51.46 10.38L51.46 10.38L51.46 10.38Q53.00 11.18 53.57 12.56L53.57 12.56L53.57 12.56Q53.89 13.31 53.89 14.19L53.89 14.19L53.89 14.19Q53.89 15.79 53.14 17.00L53.14 17.00L53.14 17.00Q52.38 18.22 51.08 18.85L51.08 18.85L51.08 18.85Q49.79 19.49 48.14 19.49L48.14 19.49L48.14 19.49Q46.27 19.49 44.83 18.72L44.83 18.72L44.83 18.72Q42.44 17.45 42.44 14.89ZM56.53 13.59L56.53 16.36L56.53 16.36Q56.53 17.29 56.68 17.68L56.68 17.68L56.68 17.68Q56.83 18.07 57.02 18.23L57.02 18.23L57.02 18.23Q57.42 18.57 58.34 18.57L58.34 18.57L58.34 18.57Q59.27 18.57 59.70 18.10L59.70 18.10L59.70 18.10Q60.13 17.62 60.13 16.51L60.13 16.51L60.13 14.20L60.13 14.20Q60.13 13.69 59.63 13.66L59.63 13.66L59.63 13.66Q59.23 13.64 59.19 13.57L59.19 13.57L59.19 13.57Q59.15 13.51 59.15 13.43L59.15 13.43L59.15 13.43Q59.15 13.08 59.55 12.91L59.55 12.91L59.55 12.91Q59.95 12.73 60.50 12.73L60.50 12.73L60.50 12.73Q61.05 12.73 61.25 12.88L61.25 12.88L61.25 12.88Q61.44 13.03 61.44 13.59L61.44 13.59L61.45 17.96L61.45 17.96Q61.45 18.43 61.94 18.46L61.94 18.46L61.94 18.46Q62.29 18.48 62.36 18.54L62.36 18.54L62.36 18.54Q62.44 18.59 62.44 18.77L62.44 18.77L62.44 18.77Q62.44 18.96 62.21 19.12L62.21 19.12L62.21 19.12Q61.81 19.39 61.16 19.39L61.16 19.39L61.16 19.39Q60.52 19.39 60.36 19.20L60.36 19.20L60.36 19.20Q60.21 19.00 60.21 18.30L60.21 18.30L60.21 18.30Q59.38 19.50 57.68 19.50L57.68 19.50L57.68 19.50Q56.33 19.50 55.77 18.78L55.77 18.78L55.77 18.78Q55.21 18.05 55.21 16.54L55.21 16.54L55.21 14.20L55.21 14.20Q55.21 13.69 54.72 13.66L54.72 13.66L54.72 13.66Q54.32 13.64 54.28 13.57L54.28 13.57L54.28 13.57Q54.24 13.51 54.24 13.43L54.24 13.43L54.24 13.43Q54.24 13.08 54.63 12.91L54.63 12.91L54.63 12.91Q55.03 12.73 55.58 12.73L55.58 12.73L55.58 12.73Q56.13 12.73 56.33 12.88L56.33 12.88L56.33 12.88Q56.53 13.03 56.53 13.59L56.53 13.59ZM66.31 18.70L66.31 18.70L66.31 18.70Q67.85 18.70 67.85 17.75L67.85 17.75L67.85 17.75Q67.85 17.04 66.46 16.64L66.46 16.64L66.46 16.64Q66.20 16.56 65.83 16.46L65.83 16.46L65.83 16.46Q65.14 16.28 64.90 16.18L64.90 16.18L64.90 16.18Q64.30 15.95 63.88 15.50L63.88 15.50L63.88 15.50Q63.46 15.06 63.46 14.45L63.46 14.45L63.46 14.45Q63.46 13.67 64.21 13.15L64.21 13.15L64.21 13.15Q64.96 12.63 66.02 12.63L66.02 12.63L66.02 12.63Q67.05 12.63 67.96 13.00L67.96 13.00L67.96 13.00Q68.40 13.19 68.68 13.51L68.68 13.51L68.68 13.51Q68.95 13.84 68.95 14.20L68.95 14.20L68.95 14.20Q68.95 14.55 68.67 14.77L68.67 14.77L68.67 14.77Q68.39 14.98 68.08 14.98L68.08 14.98L68.08 14.98Q67.78 14.98 67.68 14.92L67.68 14.92L67.68 14.92Q67.58 14.86 67.58 14.65L67.58 14.65L67.58 14.65Q67.58 13.33 66.18 13.33L66.18 13.33L66.18 13.33Q65.60 13.33 65.17 13.59L65.17 13.59L65.17 13.59Q64.74 13.84 64.74 14.25L64.74 14.25L64.74 14.25Q64.74 14.90 66.08 15.27L66.08 15.27L66.08 15.27Q66.29 15.33 66.59 15.40L66.59 15.40L66.59 15.40Q66.89 15.48 67.14 15.56L67.14 15.56L67.14 15.56Q67.40 15.64 67.67 15.75L67.67 15.75L67.67 15.75Q67.95 15.85 68.26 16.02L68.26 16.02L68.26 16.02Q68.56 16.19 68.76 16.39L68.76 16.39L68.76 16.39Q69.20 16.84 69.20 17.48L69.20 17.48L69.20 17.48Q69.20 18.12 68.77 18.59L68.77 18.59L68.77 18.59Q67.92 19.50 66.31 19.50L66.31 19.50L66.31 19.50Q65.26 19.50 64.38 19.15L64.38 19.15L64.38 19.15Q63.93 18.98 63.66 18.66L63.66 18.66L63.66 18.66Q63.38 18.35 63.38 17.99L63.38 17.99L63.38 17.99Q63.38 17.64 63.61 17.44L63.61 17.44L63.61 17.44Q63.83 17.25 64.12 17.25L64.12 17.25L64.12 17.25Q64.41 17.25 64.61 17.42L64.61 17.42L64.61 17.42Q64.81 17.60 64.81 17.87L64.81 17.87L64.81 17.87Q64.81 18.13 64.76 18.43L64.76 18.43L64.76 18.43Q65.49 18.70 66.31 18.70ZM72.24 19.32L72.24 19.32L71.65 19.33L71.65 19.33Q70.76 19.33 70.55 19.05L70.55 19.05L70.55 19.05Q70.45 18.93 70.45 18.75L70.45 18.75L70.45 18.75Q70.45 18.58 70.59 18.51L70.59 18.51L70.59 18.51Q70.72 18.44 70.89 18.44L70.89 18.44L70.89 18.44Q71.06 18.43 71.20 18.33L71.20 18.33L71.20 18.33Q71.33 18.23 71.33 18.01L71.33 18.01L71.33 14.11L71.33 14.11Q71.33 13.90 71.18 13.80L71.18 13.80L71.18 13.80Q71.03 13.70 70.85 13.69L70.85 13.69L70.85 13.69Q70.36 13.66 70.36 13.38L70.36 13.38L70.36 13.38Q70.36 12.93 71.26 12.77L71.26 12.77L71.26 12.77Q71.46 12.73 71.64 12.73L71.64 12.73L71.64 12.73Q72.23 12.73 72.40 12.90L72.40 12.90L72.40 12.90Q72.57 13.08 72.57 13.68L72.57 13.68L72.57 13.68Q73.51 12.63 75.13 12.63L75.13 12.63L75.13 12.63Q75.69 12.63 76.22 12.96L76.22 12.96L76.22 12.96Q76.75 13.30 77.04 13.75L77.04 13.75L77.04 13.75Q78.20 12.62 79.63 12.62L79.63 12.62L79.63 12.62Q81.27 12.62 81.72 14.03L81.72 14.03L81.72 14.03Q81.97 14.79 81.97 16.10L81.97 16.10L81.97 18.01L81.97 18.01Q81.97 18.41 82.41 18.43L82.41 18.43L82.41 18.43Q82.85 18.46 82.85 18.79L82.85 18.79L82.85 18.79Q82.85 19.16 82.44 19.25L82.44 19.25L82.44 19.25Q82.13 19.32 81.58 19.32L81.58 19.32L80.99 19.33L80.99 19.33Q80.10 19.33 79.88 19.05L79.88 19.05L79.88 19.05Q79.79 18.93 79.79 18.75L79.79 18.75L79.79 18.75Q79.79 18.58 79.93 18.51L79.93 18.51L79.93 18.51Q80.06 18.44 80.23 18.44L80.23 18.44L80.23 18.44Q80.40 18.43 80.53 18.33L80.53 18.33L80.53 18.33Q80.67 18.23 80.67 18.01L80.67 18.01L80.67 15.91L80.67 15.91Q80.67 14.35 80.32 13.92L80.32 13.92L80.32 13.92Q79.99 13.50 79.39 13.50L79.39 13.50L79.39 13.50Q78.78 13.50 78.33 13.66L78.33 13.66L78.33 13.66Q77.88 13.82 77.59 14.16L77.59 14.16L77.59 14.16Q77.31 14.50 77.31 14.96L77.31 14.96L77.31 18.01L77.31 18.01Q77.31 18.41 77.75 18.43L77.75 18.43L77.75 18.43Q78.19 18.46 78.19 18.79L78.19 18.79L78.19 18.79Q78.19 19.16 77.78 19.25L77.78 19.25L77.78 19.25Q77.46 19.32 76.92 19.32L76.92 19.32L76.33 19.33L76.33 19.33Q75.43 19.33 75.22 19.05L75.22 19.05L75.22 19.05Q75.13 18.93 75.13 18.75L75.13 18.75L75.13 18.75Q75.13 18.58 75.26 18.51L75.26 18.51L75.26 18.51Q75.40 18.44 75.57 18.44L75.57 18.44L75.57 18.44Q75.74 18.43 75.87 18.33L75.87 18.33L75.87 18.33Q76.01 18.23 76.01 18.01L76.01 18.01L76.01 15.98L76.01 15.98Q76.01 14.69 75.78 14.21L75.78 14.21L75.78 14.21Q75.46 13.50 74.66 13.50L74.66 13.50L74.66 13.50Q73.68 13.50 73.15 14L73.15 14L73.15 14Q72.63 14.50 72.63 15.42L72.63 15.42L72.63 18.01L72.63 18.01Q72.63 18.41 73.07 18.43L73.07 18.43L73.07 18.43Q73.51 18.46 73.51 18.79L73.51 18.79L73.51 18.79Q73.51 19.16 73.10 19.25L73.10 19.25L73.10 19.25Q72.79 19.32 72.24 19.32ZM84.42 18.57L84.42 18.57L84.42 18.57Q83.47 17.64 83.47 16.11L83.47 16.11L83.47 16.11Q83.47 14.57 84.43 13.61L84.43 13.61L84.43 13.61Q85.38 12.65 86.86 12.65L86.86 12.65L86.86 12.65Q88.03 12.65 88.83 13.40L88.83 13.40L88.83 13.40Q89.63 14.16 89.63 15.30L89.63 15.30L89.63 15.30Q89.63 15.85 88.76 15.85L88.76 15.85L84.80 15.85L84.80 15.85Q84.81 16.96 85.52 17.72L85.52 17.72L85.52 17.72Q86.22 18.48 87.29 18.48L87.29 18.48L87.29 18.48Q88.01 18.48 88.68 18.06L88.68 18.06L88.68 18.06Q89.03 17.84 89.13 17.84L89.13 17.84L89.13 17.84Q89.23 17.84 89.36 17.94L89.36 17.94L89.36 17.94Q89.48 18.04 89.48 18.18L89.48 18.18L89.48 18.18Q89.48 18.56 89.00 18.88L89.00 18.88L89.00 18.88Q88.52 19.20 87.94 19.35L87.94 19.35L87.94 19.35Q87.36 19.50 86.92 19.50L86.92 19.50L86.92 19.50Q85.37 19.50 84.42 18.57ZM88.38 15.13L88.38 15.13L88.38 15.13Q88.36 14.35 87.96 13.86L87.96 13.86L87.96 13.86Q87.57 13.36 86.81 13.36L86.81 13.36L86.81 13.36Q86.04 13.36 85.47 13.91L85.47 13.91L85.47 13.91Q84.90 14.46 84.87 15.16L84.87 15.16L86.47 15.16L86.47 15.16Q87.53 15.16 88.38 15.13ZM92.44 19.32L92.44 19.32L91.85 19.33L91.85 19.33Q90.95 19.33 90.74 19.05L90.74 19.05L90.74 19.05Q90.64 18.93 90.64 18.75L90.64 18.75L90.64 18.75Q90.64 18.58 90.78 18.51L90.78 18.51L90.78 18.51Q90.92 18.44 91.09 18.44L91.09 18.44L91.09 18.44Q91.25 18.43 91.39 18.33L91.39 18.33L91.39 18.33Q91.53 18.23 91.53 18.01L91.53 18.01L91.53 14.64L91.53 14.64Q91.53 14.03 91.38 13.88L91.38 13.88L91.38 13.88Q91.23 13.74 91.13 13.70L91.13 13.70L91.13 13.70Q91.03 13.66 90.82 13.60L90.82 13.60L90.82 13.60Q90.61 13.54 90.48 13.47L90.48 13.47L90.48 13.47Q90.34 13.41 90.34 13.29L90.34 13.29L90.34 13.29Q90.34 12.74 91.81 12.74L91.81 12.74L91.81 12.74Q92.44 12.74 92.60 12.96L92.60 12.96L92.60 12.96Q92.77 13.17 92.77 13.95L92.77 13.95L92.77 13.95Q93.00 13.36 93.54 13.03L93.54 13.03L93.54 13.03Q94.08 12.69 94.64 12.69L94.64 12.69L94.64 12.69Q95.20 12.69 95.57 12.94L95.57 12.94L95.57 12.94Q95.94 13.18 95.94 13.55L95.94 13.55L95.94 13.55Q95.94 13.92 95.70 14.15L95.70 14.15L95.70 14.15Q95.46 14.37 95.11 14.37L95.11 14.37L95.11 14.37Q94.76 14.37 94.51 14.18L94.51 14.18L94.51 14.18Q94.26 14 94.19 13.71L94.19 13.71L94.19 13.71Q94.01 13.68 93.89 13.68L93.89 13.68L93.89 13.68Q92.83 13.68 92.83 16.13L92.83 16.13L92.83 18.01L92.83 18.01Q92.83 18.41 93.27 18.43L93.27 18.43L93.27 18.43Q93.71 18.46 93.71 18.79L93.71 18.79L93.71 18.79Q93.71 19.16 93.30 19.25L93.30 19.25L93.30 19.25Q92.98 19.32 92.44 19.32Z"></path></g><!----><g data-v-423bf9ae="" id="26fc8053-7919-4c28-964c-2cf64d451f1b" transform="matrix(2.2860044125298797,0,0,2.2860044125298797,-29.957225151274997,-66.93713016963146)" stroke="none" fill="black"><path d="M39.6 68.87h3.22L59.4 29.5h-3.22L39.6 68.87zM66 29.5v4.64l15.13 15.03L66 64.21v4.63l19.8-19.67L66 29.5zM33 68.84v-4.63L17.87 49.17 33 34.14V29.5L13.2 49.17 33 68.84z"></path></g><!----></svg>